<?xml version="1.0" encoding="UTF-8" standalone="no"?><svg xmlns="http://www.w3.org/2000/svg" xmlns:xlink="http://www.w3.org/1999/xlink" contentScriptType="application/ecmascript" contentStyleType="text/css" height="1134px" preserveAspectRatio="none" style="width:870px;height:1134px;" version="1.1" viewBox="0 0 870 1134" width="870px" zoomAndPan="magnify"><defs><filter height="300%" id="f1l0t8g3fehtif" width="300%" x="-1" y="-1"><feGaussianBlur result="blurOut" stdDeviation="2.0"/><feColorMatrix in="blurOut" result="blurOut2" type="matrix" values="0 0 0 0 0 0 0 0 0 0 0 0 0 0 0 0 0 0 .4 0"/><feOffset dx="4.0" dy="4.0" in="blurOut2" result="blurOut3"/><feBlend in="SourceGraphic" in2="blurOut3" mode="normal"/></filter></defs><g><!--MD5=[d5d9b154de0f6a596fe0bf92716ed462]
class Gracz--><rect fill="#FEFECE" filter="url(#f1l0t8g3fehtif)" height="86.4141" id="Gracz" style="stroke: #A80036; stroke-width: 1.5;" width="177" x="122.5" y="440.5"/><ellipse cx="189.75" cy="456.5" fill="#ADD1B2" rx="11" ry="11" style="stroke: #A80036; stroke-width: 1.0;"/><path d="M192.0938,452.1719 L192.2656,452.25 C192.4844,451.9375 192.6875,451.8438 192.9844,451.8438 C193.2813,451.8438 193.5625,451.9844 193.7188,452.25 C193.8125,452.4063 193.8281,452.5313 193.8281,452.9688 L193.8281,454.3906 C193.8281,454.8125 193.7969,455 193.6875,455.1563 C193.5156,455.375 193.25,455.5156 192.9844,455.5156 C192.7656,455.5156 192.5313,455.4063 192.3906,455.2656 C192.25,455.1406 192.2188,455.0156 192.1563,454.6094 C192.0625,454.2031 191.8906,453.9844 191.4063,453.7031 C190.9375,453.4531 190.3281,453.2969 189.75,453.2969 C188.0156,453.2969 186.7656,454.6094 186.7656,456.3906 L186.7656,457.4844 C186.7656,459.1875 188.0625,460.2813 190.1094,460.2813 C190.875,460.2813 191.5625,460.1563 191.9844,459.8906 C192.1719,459.7969 192.1719,459.7969 192.625,459.3125 C192.8125,459.125 193.0156,459.0469 193.2344,459.0469 C193.7031,459.0469 194.0938,459.4375 194.0938,459.8906 C194.0938,460.2813 193.7656,460.7344 193.1875,461.1406 C192.4375,461.6875 191.2813,461.9844 190.0625,461.9844 C187.1719,461.9844 185.0625,460.0938 185.0625,457.5156 L185.0625,456.3906 C185.0625,453.6719 187.0625,451.5938 189.6875,451.5938 C190.5625,451.5938 191.1563,451.7344 192.0938,452.1719 Z "/><text fill="#000000" font-family="sans-serif" font-size="12" lengthAdjust="spacingAndGlyphs" textLength="34" x="210.25" y="460.6543">Gracz</text><line style="stroke: #A80036; stroke-width: 1.5;" x1="123.5" x2="298.5" y1="472.5" y2="472.5"/><ellipse cx="133.5" cy="483.5" fill="none" rx="3" ry="3" style="stroke: #038048; stroke-width: 1.0;"/><text fill="#000000" font-family="sans-serif" font-size="11" lengthAdjust="spacingAndGlyphs" textLength="56" x="142.5" y="486.7104">Reka reka</text><line style="stroke: #A80036; stroke-width: 1.5;" x1="123.5" x2="298.5" y1="493.3047" y2="493.3047"/><ellipse cx="133.5" cy="504.3047" fill="#84BE84" rx="3" ry="3" style="stroke: #038048; stroke-width: 1.0;"/><text fill="#000000" font-family="sans-serif" font-size="11" lengthAdjust="spacingAndGlyphs" textLength="151" x="142.5" y="507.5151">Kontrakt deklarujKontrakt()</text><ellipse cx="133.5" cy="517.1094" fill="#84BE84" rx="3" ry="3" style="stroke: #038048; stroke-width: 1.0;"/><text fill="#000000" font-family="sans-serif" font-size="11" lengthAdjust="spacingAndGlyphs" textLength="93" x="142.5" y="520.3198">Odzywka licytuj()</text><!--MD5=[e685e1f0263126f09461e480a7eeb5cb]
class Gra--><rect fill="#FEFECE" filter="url(#f1l0t8g3fehtif)" height="99.2188" id="Gra" style="stroke: #A80036; stroke-width: 1.5;" width="133" x="368.5" y="434"/><ellipse cx="419.75" cy="450" fill="#ADD1B2" rx="11" ry="11" style="stroke: #A80036; stroke-width: 1.0;"/><path d="M422.0938,445.6719 L422.2656,445.75 C422.4844,445.4375 422.6875,445.3438 422.9844,445.3438 C423.2813,445.3438 423.5625,445.4844 423.7188,445.75 C423.8125,445.9063 423.8281,446.0313 423.8281,446.4688 L423.8281,447.8906 C423.8281,448.3125 423.7969,448.5 423.6875,448.6563 C423.5156,448.875 423.25,449.0156 422.9844,449.0156 C422.7656,449.0156 422.5313,448.9063 422.3906,448.7656 C422.25,448.6406 422.2188,448.5156 422.1563,448.1094 C422.0625,447.7031 421.8906,447.4844 421.4063,447.2031 C420.9375,446.9531 420.3281,446.7969 419.75,446.7969 C418.0156,446.7969 416.7656,448.1094 416.7656,449.8906 L416.7656,450.9844 C416.7656,452.6875 418.0625,453.7813 420.1094,453.7813 C420.875,453.7813 421.5625,453.6563 421.9844,453.3906 C422.1719,453.2969 422.1719,453.2969 422.625,452.8125 C422.8125,452.625 423.0156,452.5469 423.2344,452.5469 C423.7031,452.5469 424.0938,452.9375 424.0938,453.3906 C424.0938,453.7813 423.7656,454.2344 423.1875,454.6406 C422.4375,455.1875 421.2813,455.4844 420.0625,455.4844 C417.1719,455.4844 415.0625,453.5938 415.0625,451.0156 L415.0625,449.8906 C415.0625,447.1719 417.0625,445.0938 419.6875,445.0938 C420.5625,445.0938 421.1563,445.2344 422.0938,445.6719 Z "/><text fill="#000000" font-family="sans-serif" font-size="12" lengthAdjust="spacingAndGlyphs" textLength="22" x="440.25" y="454.1543">Gra</text><line style="stroke: #A80036; stroke-width: 1.5;" x1="369.5" x2="500.5" y1="466" y2="466"/><ellipse cx="379.5" cy="477" fill="none" rx="3" ry="3" style="stroke: #038048; stroke-width: 1.0;"/><text fill="#000000" font-family="sans-serif" font-size="11" lengthAdjust="spacingAndGlyphs" textLength="81" x="388.5" y="480.2104">Gracz[] gracze</text><ellipse cx="379.5" cy="489.8047" fill="none" rx="3" ry="3" style="stroke: #038048; stroke-width: 1.0;"/><text fill="#000000" font-family="sans-serif" font-size="11" lengthAdjust="spacingAndGlyphs" textLength="60" x="388.5" y="493.0151">Tura[] tury</text><ellipse cx="379.5" cy="502.6094" fill="none" rx="3" ry="3" style="stroke: #038048; stroke-width: 1.0;"/><text fill="#000000" font-family="sans-serif" font-size="11" lengthAdjust="spacingAndGlyphs" textLength="55" x="388.5" y="505.8198">Talia talia</text><line style="stroke: #A80036; stroke-width: 1.5;" x1="369.5" x2="500.5" y1="512.4141" y2="512.4141"/><ellipse cx="379.5" cy="523.4141" fill="#84BE84" rx="3" ry="3" style="stroke: #038048; stroke-width: 1.0;"/><text fill="#000000" font-family="sans-serif" font-size="11" lengthAdjust="spacingAndGlyphs" textLength="107" x="388.5" y="526.6245">void rozegrajTure()</text><!--MD5=[e071b9b8257f0c6bc3890fcfa5670d11]
class Talia--><rect fill="#FEFECE" filter="url(#f1l0t8g3fehtif)" height="86.4141" id="Talia" style="stroke: #A80036; stroke-width: 1.5;" width="173" x="577.5" y="440.5"/><ellipse cx="645.25" cy="456.5" fill="#ADD1B2" rx="11" ry="11" style="stroke: #A80036; stroke-width: 1.0;"/><path d="M647.5938,452.1719 L647.7656,452.25 C647.9844,451.9375 648.1875,451.8438 648.4844,451.8438 C648.7813,451.8438 649.0625,451.9844 649.2188,452.25 C649.3125,452.4063 649.3281,452.5313 649.3281,452.9688 L649.3281,454.3906 C649.3281,454.8125 649.2969,455 649.1875,455.1563 C649.0156,455.375 648.75,455.5156 648.4844,455.5156 C648.2656,455.5156 648.0313,455.4063 647.8906,455.2656 C647.75,455.1406 647.7188,455.0156 647.6563,454.6094 C647.5625,454.2031 647.3906,453.9844 646.9063,453.7031 C646.4375,453.4531 645.8281,453.2969 645.25,453.2969 C643.5156,453.2969 642.2656,454.6094 642.2656,456.3906 L642.2656,457.4844 C642.2656,459.1875 643.5625,460.2813 645.6094,460.2813 C646.375,460.2813 647.0625,460.1563 647.4844,459.8906 C647.6719,459.7969 647.6719,459.7969 648.125,459.3125 C648.3125,459.125 648.5156,459.0469 648.7344,459.0469 C649.2031,459.0469 649.5938,459.4375 649.5938,459.8906 C649.5938,460.2813 649.2656,460.7344 648.6875,461.1406 C647.9375,461.6875 646.7813,461.9844 645.5625,461.9844 C642.6719,461.9844 640.5625,460.0938 640.5625,457.5156 L640.5625,456.3906 C640.5625,453.6719 642.5625,451.5938 645.1875,451.5938 C646.0625,451.5938 646.6563,451.7344 647.5938,452.1719 Z "/><text fill="#000000" font-family="sans-serif" font-size="12" lengthAdjust="spacingAndGlyphs" textLength="29" x="665.75" y="460.6543">Talia</text><line style="stroke: #A80036; stroke-width: 1.5;" x1="578.5" x2="749.5" y1="472.5" y2="472.5"/><ellipse cx="588.5" cy="483.5" fill="none" rx="3" ry="3" style="stroke: #038048; stroke-width: 1.0;"/><text fill="#000000" font-family="sans-serif" font-size="11" lengthAdjust="spacingAndGlyphs" textLength="70" x="597.5" y="486.7104">Karta[] karty</text><line style="stroke: #A80036; stroke-width: 1.5;" x1="578.5" x2="749.5" y1="493.3047" y2="493.3047"/><ellipse cx="588.5" cy="504.3047" fill="#84BE84" rx="3" ry="3" style="stroke: #038048; stroke-width: 1.0;"/><text fill="#000000" font-family="sans-serif" font-size="11" lengthAdjust="spacingAndGlyphs" textLength="63" x="597.5" y="507.5151">void tasuj()</text><ellipse cx="588.5" cy="517.1094" fill="#84BE84" rx="3" ry="3" style="stroke: #038048; stroke-width: 1.0;"/><text fill="#000000" font-family="sans-serif" font-size="11" lengthAdjust="spacingAndGlyphs" textLength="147" x="597.5" y="520.3198">Reka wybierz13losowych()</text><!--MD5=[8fac10b7fc098c0da8fe435d61e2292a]
class Karta--><rect fill="#FEFECE" filter="url(#f1l0t8g3fehtif)" height="73.6094" id="Karta" style="stroke: #A80036; stroke-width: 1.5;" width="120" x="490" y="283"/><ellipse cx="529.75" cy="299" fill="#ADD1B2" rx="11" ry="11" style="stroke: #A80036; stroke-width: 1.0;"/><path d="M532.0938,294.6719 L532.2656,294.75 C532.4844,294.4375 532.6875,294.3438 532.9844,294.3438 C533.2813,294.3438 533.5625,294.4844 533.7188,294.75 C533.8125,294.9063 533.8281,295.0313 533.8281,295.4688 L533.8281,296.8906 C533.8281,297.3125 533.7969,297.5 533.6875,297.6563 C533.5156,297.875 533.25,298.0156 532.9844,298.0156 C532.7656,298.0156 532.5313,297.9063 532.3906,297.7656 C532.25,297.6406 532.2188,297.5156 532.1563,297.1094 C532.0625,296.7031 531.8906,296.4844 531.4063,296.2031 C530.9375,295.9531 530.3281,295.7969 529.75,295.7969 C528.0156,295.7969 526.7656,297.1094 526.7656,298.8906 L526.7656,299.9844 C526.7656,301.6875 528.0625,302.7813 530.1094,302.7813 C530.875,302.7813 531.5625,302.6563 531.9844,302.3906 C532.1719,302.2969 532.1719,302.2969 532.625,301.8125 C532.8125,301.625 533.0156,301.5469 533.2344,301.5469 C533.7031,301.5469 534.0938,301.9375 534.0938,302.3906 C534.0938,302.7813 533.7656,303.2344 533.1875,303.6406 C532.4375,304.1875 531.2813,304.4844 530.0625,304.4844 C527.1719,304.4844 525.0625,302.5938 525.0625,300.0156 L525.0625,298.8906 C525.0625,296.1719 527.0625,294.0938 529.6875,294.0938 C530.5625,294.0938 531.1563,294.2344 532.0938,294.6719 Z "/><text fill="#000000" font-family="sans-serif" font-size="12" lengthAdjust="spacingAndGlyphs" textLength="33" x="549.25" y="303.1543">Karta</text><line style="stroke: #A80036; stroke-width: 1.5;" x1="491" x2="609" y1="315" y2="315"/><ellipse cx="501" cy="326" fill="none" rx="3" ry="3" style="stroke: #038048; stroke-width: 1.0;"/><text fill="#000000" font-family="sans-serif" font-size="11" lengthAdjust="spacingAndGlyphs" textLength="94" x="510" y="329.2104">int kolor // enum</text><ellipse cx="501" cy="338.8047" fill="none" rx="3" ry="3" style="stroke: #038048; stroke-width: 1.0;"/><text fill="#000000" font-family="sans-serif" font-size="11" lengthAdjust="spacingAndGlyphs" textLength="94" x="510" y="342.0151">int starszenstwo</text><line style="stroke: #A80036; stroke-width: 1.5;" x1="491" x2="609" y1="348.6094" y2="348.6094"/><!--MD5=[25c24254301efa355d6791dd6545c570]
class Tura--><rect fill="#FEFECE" filter="url(#f1l0t8g3fehtif)" height="86.4141" id="Tura" style="stroke: #A80036; stroke-width: 1.5;" width="146" x="508" y="672"/><ellipse cx="562.75" cy="688" fill="#ADD1B2" rx="11" ry="11" style="stroke: #A80036; stroke-width: 1.0;"/><path d="M565.0938,683.6719 L565.2656,683.75 C565.4844,683.4375 565.6875,683.3438 565.9844,683.3438 C566.2813,683.3438 566.5625,683.4844 566.7188,683.75 C566.8125,683.9063 566.8281,684.0313 566.8281,684.4688 L566.8281,685.8906 C566.8281,686.3125 566.7969,686.5 566.6875,686.6563 C566.5156,686.875 566.25,687.0156 565.9844,687.0156 C565.7656,687.0156 565.5313,686.9063 565.3906,686.7656 C565.25,686.6406 565.2188,686.5156 565.1563,686.1094 C565.0625,685.7031 564.8906,685.4844 564.4063,685.2031 C563.9375,684.9531 563.3281,684.7969 562.75,684.7969 C561.0156,684.7969 559.7656,686.1094 559.7656,687.8906 L559.7656,688.9844 C559.7656,690.6875 561.0625,691.7813 563.1094,691.7813 C563.875,691.7813 564.5625,691.6563 564.9844,691.3906 C565.1719,691.2969 565.1719,691.2969 565.625,690.8125 C565.8125,690.625 566.0156,690.5469 566.2344,690.5469 C566.7031,690.5469 567.0938,690.9375 567.0938,691.3906 C567.0938,691.7813 566.7656,692.2344 566.1875,692.6406 C565.4375,693.1875 564.2813,693.4844 563.0625,693.4844 C560.1719,693.4844 558.0625,691.5938 558.0625,689.0156 L558.0625,687.8906 C558.0625,685.1719 560.0625,683.0938 562.6875,683.0938 C563.5625,683.0938 564.1563,683.2344 565.0938,683.6719 Z "/><text fill="#000000" font-family="sans-serif" font-size="12" lengthAdjust="spacingAndGlyphs" textLength="28" x="583.25" y="692.1543">Tura</text><line style="stroke: #A80036; stroke-width: 1.5;" x1="509" x2="653" y1="704" y2="704"/><ellipse cx="519" cy="715" fill="none" rx="3" ry="3" style="stroke: #038048; stroke-width: 1.0;"/><text fill="#000000" font-family="sans-serif" font-size="11" lengthAdjust="spacingAndGlyphs" textLength="97" x="528" y="718.2104">Licytacja licytacja</text><ellipse cx="519" cy="727.8047" fill="none" rx="3" ry="3" style="stroke: #038048; stroke-width: 1.0;"/><text fill="#000000" font-family="sans-serif" font-size="11" lengthAdjust="spacingAndGlyphs" textLength="120" x="528" y="731.0151">Rozgrywka rozgrywka</text><line style="stroke: #A80036; stroke-width: 1.5;" x1="509" x2="653" y1="737.6094" y2="737.6094"/><ellipse cx="519" cy="748.6094" fill="#84BE84" rx="3" ry="3" style="stroke: #038048; stroke-width: 1.0;"/><text fill="#000000" font-family="sans-serif" font-size="11" lengthAdjust="spacingAndGlyphs" textLength="107" x="528" y="751.8198">void rozegrajTure()</text><!--MD5=[42d94f85c3e2476006a2ddd120622b28]
class Licytacja--><rect fill="#FEFECE" filter="url(#f1l0t8g3fehtif)" height="86.4141" id="Licytacja" style="stroke: #A80036; stroke-width: 1.5;" width="180" x="243" y="672"/><ellipse cx="302.25" cy="688" fill="#ADD1B2" rx="11" ry="11" style="stroke: #A80036; stroke-width: 1.0;"/><path d="M304.5938,683.6719 L304.7656,683.75 C304.9844,683.4375 305.1875,683.3438 305.4844,683.3438 C305.7813,683.3438 306.0625,683.4844 306.2188,683.75 C306.3125,683.9063 306.3281,684.0313 306.3281,684.4688 L306.3281,685.8906 C306.3281,686.3125 306.2969,686.5 306.1875,686.6563 C306.0156,686.875 305.75,687.0156 305.4844,687.0156 C305.2656,687.0156 305.0313,686.9063 304.8906,686.7656 C304.75,686.6406 304.7188,686.5156 304.6563,686.1094 C304.5625,685.7031 304.3906,685.4844 303.9063,685.2031 C303.4375,684.9531 302.8281,684.7969 302.25,684.7969 C300.5156,684.7969 299.2656,686.1094 299.2656,687.8906 L299.2656,688.9844 C299.2656,690.6875 300.5625,691.7813 302.6094,691.7813 C303.375,691.7813 304.0625,691.6563 304.4844,691.3906 C304.6719,691.2969 304.6719,691.2969 305.125,690.8125 C305.3125,690.625 305.5156,690.5469 305.7344,690.5469 C306.2031,690.5469 306.5938,690.9375 306.5938,691.3906 C306.5938,691.7813 306.2656,692.2344 305.6875,692.6406 C304.9375,693.1875 303.7813,693.4844 302.5625,693.4844 C299.6719,693.4844 297.5625,691.5938 297.5625,689.0156 L297.5625,687.8906 C297.5625,685.1719 299.5625,683.0938 302.1875,683.0938 C303.0625,683.0938 303.6563,683.2344 304.5938,683.6719 Z "/><text fill="#000000" font-family="sans-serif" font-size="12" lengthAdjust="spacingAndGlyphs" textLength="53" x="322.75" y="692.1543">Licytacja</text><line style="stroke: #A80036; stroke-width: 1.5;" x1="244" x2="422" y1="704" y2="704"/><ellipse cx="254" cy="715" fill="none" rx="3" ry="3" style="stroke: #038048; stroke-width: 1.0;"/><text fill="#000000" font-family="sans-serif" font-size="11" lengthAdjust="spacingAndGlyphs" textLength="104" x="263" y="718.2104">Odzywka[] odzywki</text><ellipse cx="254" cy="727.8047" fill="none" rx="3" ry="3" style="stroke: #038048; stroke-width: 1.0;"/><text fill="#000000" font-family="sans-serif" font-size="11" lengthAdjust="spacingAndGlyphs" textLength="151" x="263" y="731.0151">Kontrakt wynikowyKontrakt</text><line style="stroke: #A80036; stroke-width: 1.5;" x1="244" x2="422" y1="737.6094" y2="737.6094"/><ellipse cx="254" cy="748.6094" fill="#84BE84" rx="3" ry="3" style="stroke: #038048; stroke-width: 1.0;"/><text fill="#000000" font-family="sans-serif" font-size="11" lengthAdjust="spacingAndGlyphs" textLength="154" x="263" y="751.8198">void przeprowadzLicytacje()</text><!--MD5=[925bc7f3a64967cabc38350aa63f5a01]
class Rozgrywka--><rect fill="#FEFECE" filter="url(#f1l0t8g3fehtif)" height="124.8281" id="Rozgrywka" style="stroke: #A80036; stroke-width: 1.5;" width="198" x="447" y="835"/><ellipse cx="509.75" cy="851" fill="#ADD1B2" rx="11" ry="11" style="stroke: #A80036; stroke-width: 1.0;"/><path d="M512.0938,846.6719 L512.2656,846.75 C512.4844,846.4375 512.6875,846.3438 512.9844,846.3438 C513.2813,846.3438 513.5625,846.4844 513.7188,846.75 C513.8125,846.9063 513.8281,847.0313 513.8281,847.4688 L513.8281,848.8906 C513.8281,849.3125 513.7969,849.5 513.6875,849.6563 C513.5156,849.875 513.25,850.0156 512.9844,850.0156 C512.7656,850.0156 512.5313,849.9063 512.3906,849.7656 C512.25,849.6406 512.2188,849.5156 512.1563,849.1094 C512.0625,848.7031 511.8906,848.4844 511.4063,848.2031 C510.9375,847.9531 510.3281,847.7969 509.75,847.7969 C508.0156,847.7969 506.7656,849.1094 506.7656,850.8906 L506.7656,851.9844 C506.7656,853.6875 508.0625,854.7813 510.1094,854.7813 C510.875,854.7813 511.5625,854.6563 511.9844,854.3906 C512.1719,854.2969 512.1719,854.2969 512.625,853.8125 C512.8125,853.625 513.0156,853.5469 513.2344,853.5469 C513.7031,853.5469 514.0938,853.9375 514.0938,854.3906 C514.0938,854.7813 513.7656,855.2344 513.1875,855.6406 C512.4375,856.1875 511.2813,856.4844 510.0625,856.4844 C507.1719,856.4844 505.0625,854.5938 505.0625,852.0156 L505.0625,850.8906 C505.0625,848.1719 507.0625,846.0938 509.6875,846.0938 C510.5625,846.0938 511.1563,846.2344 512.0938,846.6719 Z "/><text fill="#000000" font-family="sans-serif" font-size="12" lengthAdjust="spacingAndGlyphs" textLength="64" x="530.25" y="855.1543">Rozgrywka</text><line style="stroke: #A80036; stroke-width: 1.5;" x1="448" x2="644" y1="867" y2="867"/><ellipse cx="458" cy="878" fill="none" rx="3" ry="3" style="stroke: #038048; stroke-width: 1.0;"/><text fill="#000000" font-family="sans-serif" font-size="11" lengthAdjust="spacingAndGlyphs" textLength="109" x="467" y="881.2104">Gracz rozgrywajacy</text><ellipse cx="458" cy="890.8047" fill="none" rx="3" ry="3" style="stroke: #038048; stroke-width: 1.0;"/><text fill="#000000" font-family="sans-serif" font-size="11" lengthAdjust="spacingAndGlyphs" textLength="172" x="467" y="894.0151">Kontrakt obowiazujacyKontrakt</text><ellipse cx="458" cy="903.6094" fill="none" rx="3" ry="3" style="stroke: #038048; stroke-width: 1.0;"/><text fill="#000000" font-family="sans-serif" font-size="11" lengthAdjust="spacingAndGlyphs" textLength="66" x="467" y="906.8198">Lewa[] lewy</text><line style="stroke: #A80036; stroke-width: 1.5;" x1="448" x2="644" y1="913.4141" y2="913.4141"/><ellipse cx="458" cy="924.4141" fill="#84BE84" rx="3" ry="3" style="stroke: #038048; stroke-width: 1.0;"/><text fill="#000000" font-family="sans-serif" font-size="11" lengthAdjust="spacingAndGlyphs" textLength="98" x="467" y="927.6245">void rozdajKarty()</text><ellipse cx="458" cy="937.2188" fill="#84BE84" rx="3" ry="3" style="stroke: #038048; stroke-width: 1.0;"/><text fill="#000000" font-family="sans-serif" font-size="11" lengthAdjust="spacingAndGlyphs" textLength="117" x="467" y="940.4292">void rozgrywajLewy()</text><ellipse cx="458" cy="950.0234" fill="#84BE84" rx="3" ry="3" style="stroke: #038048; stroke-width: 1.0;"/><text fill="#000000" font-family="sans-serif" font-size="11" lengthAdjust="spacingAndGlyphs" textLength="116" x="467" y="953.2339">void rozliczKontrakt()</text><!--MD5=[b0220bfde02f4f6c1a85796cedd2082b]
class Odzywka--><rect fill="#FEFECE" filter="url(#f1l0t8g3fehtif)" height="73.6094" id="Odzywka" style="stroke: #A80036; stroke-width: 1.5;" width="126" x="6" y="678"/><ellipse cx="39.9" cy="694" fill="#ADD1B2" rx="11" ry="11" style="stroke: #A80036; stroke-width: 1.0;"/><path d="M42.2438,689.6719 L42.4156,689.75 C42.6344,689.4375 42.8375,689.3438 43.1344,689.3438 C43.4313,689.3438 43.7125,689.4844 43.8688,689.75 C43.9625,689.9063 43.9781,690.0313 43.9781,690.4688 L43.9781,691.8906 C43.9781,692.3125 43.9469,692.5 43.8375,692.6563 C43.6656,692.875 43.4,693.0156 43.1344,693.0156 C42.9156,693.0156 42.6813,692.9063 42.5406,692.7656 C42.4,692.6406 42.3688,692.5156 42.3063,692.1094 C42.2125,691.7031 42.0406,691.4844 41.5563,691.2031 C41.0875,690.9531 40.4781,690.7969 39.9,690.7969 C38.1656,690.7969 36.9156,692.1094 36.9156,693.8906 L36.9156,694.9844 C36.9156,696.6875 38.2125,697.7813 40.2594,697.7813 C41.025,697.7813 41.7125,697.6563 42.1344,697.3906 C42.3219,697.2969 42.3219,697.2969 42.775,696.8125 C42.9625,696.625 43.1656,696.5469 43.3844,696.5469 C43.8531,696.5469 44.2438,696.9375 44.2438,697.3906 C44.2438,697.7813 43.9156,698.2344 43.3375,698.6406 C42.5875,699.1875 41.4313,699.4844 40.2125,699.4844 C37.3219,699.4844 35.2125,697.5938 35.2125,695.0156 L35.2125,693.8906 C35.2125,691.1719 37.2125,689.0938 39.8375,689.0938 C40.7125,689.0938 41.3063,689.2344 42.2438,689.6719 Z "/><text fill="#000000" font-family="sans-serif" font-size="12" lengthAdjust="spacingAndGlyphs" textLength="52" x="58.1" y="698.1543">Odzywka</text><line style="stroke: #A80036; stroke-width: 1.5;" x1="7" x2="131" y1="710" y2="710"/><ellipse cx="17" cy="721" fill="none" rx="3" ry="3" style="stroke: #038048; stroke-width: 1.0;"/><text fill="#000000" font-family="sans-serif" font-size="11" lengthAdjust="spacingAndGlyphs" textLength="100" x="26" y="724.2104">Gracz deklarujacy</text><ellipse cx="17" cy="733.8047" fill="none" rx="3" ry="3" style="stroke: #038048; stroke-width: 1.0;"/><text fill="#000000" font-family="sans-serif" font-size="11" lengthAdjust="spacingAndGlyphs" textLength="83" x="26" y="737.0151">int typ // enum</text><line style="stroke: #A80036; stroke-width: 1.5;" x1="7" x2="131" y1="743.6094" y2="743.6094"/><!--MD5=[e54cec67708b8de1843e469ee623648f]
class Lewa--><rect fill="#FEFECE" filter="url(#f1l0t8g3fehtif)" height="60.8047" id="Lewa" style="stroke: #A80036; stroke-width: 1.5;" width="96" x="756" y="867"/><ellipse cx="785.85" cy="883" fill="#ADD1B2" rx="11" ry="11" style="stroke: #A80036; stroke-width: 1.0;"/><path d="M788.1938,878.6719 L788.3656,878.75 C788.5844,878.4375 788.7875,878.3438 789.0844,878.3438 C789.3813,878.3438 789.6625,878.4844 789.8188,878.75 C789.9125,878.9063 789.9281,879.0313 789.9281,879.4688 L789.9281,880.8906 C789.9281,881.3125 789.8969,881.5 789.7875,881.6563 C789.6156,881.875 789.35,882.0156 789.0844,882.0156 C788.8656,882.0156 788.6313,881.9063 788.4906,881.7656 C788.35,881.6406 788.3188,881.5156 788.2563,881.1094 C788.1625,880.7031 787.9906,880.4844 787.5063,880.2031 C787.0375,879.9531 786.4281,879.7969 785.85,879.7969 C784.1156,879.7969 782.8656,881.1094 782.8656,882.8906 L782.8656,883.9844 C782.8656,885.6875 784.1625,886.7813 786.2094,886.7813 C786.975,886.7813 787.6625,886.6563 788.0844,886.3906 C788.2719,886.2969 788.2719,886.2969 788.725,885.8125 C788.9125,885.625 789.1156,885.5469 789.3344,885.5469 C789.8031,885.5469 790.1938,885.9375 790.1938,886.3906 C790.1938,886.7813 789.8656,887.2344 789.2875,887.6406 C788.5375,888.1875 787.3813,888.4844 786.1625,888.4844 C783.2719,888.4844 781.1625,886.5938 781.1625,884.0156 L781.1625,882.8906 C781.1625,880.1719 783.1625,878.0938 785.7875,878.0938 C786.6625,878.0938 787.2563,878.2344 788.1938,878.6719 Z "/><text fill="#000000" font-family="sans-serif" font-size="12" lengthAdjust="spacingAndGlyphs" textLength="31" x="803.15" y="887.1543">Lewa</text><line style="stroke: #A80036; stroke-width: 1.5;" x1="757" x2="851" y1="899" y2="899"/><ellipse cx="767" cy="910" fill="none" rx="3" ry="3" style="stroke: #038048; stroke-width: 1.0;"/><text fill="#000000" font-family="sans-serif" font-size="11" lengthAdjust="spacingAndGlyphs" textLength="70" x="776" y="913.2104">Karta[] karty</text><line style="stroke: #A80036; stroke-width: 1.5;" x1="757" x2="851" y1="919.8047" y2="919.8047"/><!--MD5=[9433e7fc496dbaa41f56530748819c97]
class Kontrakt--><rect fill="#FEFECE" filter="url(#f1l0t8g3fehtif)" height="86.4141" id="Kontrakt" style="stroke: #A80036; stroke-width: 1.5;" width="126" x="270" y="1037"/><ellipse cx="303.45" cy="1053" fill="#ADD1B2" rx="11" ry="11" style="stroke: #A80036; stroke-width: 1.0;"/><path d="M305.7938,1048.6719 L305.9656,1048.75 C306.1844,1048.4375 306.3875,1048.3438 306.6844,1048.3438 C306.9813,1048.3438 307.2625,1048.4844 307.4188,1048.75 C307.5125,1048.9063 307.5281,1049.0313 307.5281,1049.4688 L307.5281,1050.8906 C307.5281,1051.3125 307.4969,1051.5 307.3875,1051.6563 C307.2156,1051.875 306.95,1052.0156 306.6844,1052.0156 C306.4656,1052.0156 306.2313,1051.9063 306.0906,1051.7656 C305.95,1051.6406 305.9188,1051.5156 305.8563,1051.1094 C305.7625,1050.7031 305.5906,1050.4844 305.1063,1050.2031 C304.6375,1049.9531 304.0281,1049.7969 303.45,1049.7969 C301.7156,1049.7969 300.4656,1051.1094 300.4656,1052.8906 L300.4656,1053.9844 C300.4656,1055.6875 301.7625,1056.7813 303.8094,1056.7813 C304.575,1056.7813 305.2625,1056.6563 305.6844,1056.3906 C305.8719,1056.2969 305.8719,1056.2969 306.325,1055.8125 C306.5125,1055.625 306.7156,1055.5469 306.9344,1055.5469 C307.4031,1055.5469 307.7938,1055.9375 307.7938,1056.3906 C307.7938,1056.7813 307.4656,1057.2344 306.8875,1057.6406 C306.1375,1058.1875 304.9813,1058.4844 303.7625,1058.4844 C300.8719,1058.4844 298.7625,1056.5938 298.7625,1054.0156 L298.7625,1052.8906 C298.7625,1050.1719 300.7625,1048.0938 303.3875,1048.0938 C304.2625,1048.0938 304.8563,1048.2344 305.7938,1048.6719 Z "/><text fill="#000000" font-family="sans-serif" font-size="12" lengthAdjust="spacingAndGlyphs" textLength="53" x="321.55" y="1057.1543">Kontrakt</text><line style="stroke: #A80036; stroke-width: 1.5;" x1="271" x2="395" y1="1069" y2="1069"/><ellipse cx="281" cy="1080" fill="none" rx="3" ry="3" style="stroke: #038048; stroke-width: 1.0;"/><text fill="#000000" font-family="sans-serif" font-size="11" lengthAdjust="spacingAndGlyphs" textLength="100" x="290" y="1083.2104">Gracz deklarujacy</text><ellipse cx="281" cy="1092.8047" fill="none" rx="3" ry="3" style="stroke: #038048; stroke-width: 1.0;"/><text fill="#000000" font-family="sans-serif" font-size="11" lengthAdjust="spacingAndGlyphs" textLength="94" x="290" y="1096.0151">int kolor // enum</text><ellipse cx="281" cy="1105.6094" fill="none" rx="3" ry="3" style="stroke: #038048; stroke-width: 1.0;"/><text fill="#000000" font-family="sans-serif" font-size="11" lengthAdjust="spacingAndGlyphs" textLength="63" x="290" y="1108.8198">int wartosc</text><line style="stroke: #A80036; stroke-width: 1.5;" x1="271" x2="395" y1="1115.4141" y2="1115.4141"/><!--MD5=[6e39afb5ad41d97c83dde443637f77d2]
class ParaGraczy--><rect fill="#FEFECE" filter="url(#f1l0t8g3fehtif)" height="73.6094" id="ParaGraczy" style="stroke: #A80036; stroke-width: 1.5;" width="101" x="465.5" y="8"/><ellipse cx="480.5" cy="24" fill="#ADD1B2" rx="11" ry="11" style="stroke: #A80036; stroke-width: 1.0;"/><path d="M482.8438,19.6719 L483.0156,19.75 C483.2344,19.4375 483.4375,19.3438 483.7344,19.3438 C484.0313,19.3438 484.3125,19.4844 484.4688,19.75 C484.5625,19.9063 484.5781,20.0313 484.5781,20.4688 L484.5781,21.8906 C484.5781,22.3125 484.5469,22.5 484.4375,22.6563 C484.2656,22.875 484,23.0156 483.7344,23.0156 C483.5156,23.0156 483.2813,22.9063 483.1406,22.7656 C483,22.6406 482.9688,22.5156 482.9063,22.1094 C482.8125,21.7031 482.6406,21.4844 482.1563,21.2031 C481.6875,20.9531 481.0781,20.7969 480.5,20.7969 C478.7656,20.7969 477.5156,22.1094 477.5156,23.8906 L477.5156,24.9844 C477.5156,26.6875 478.8125,27.7813 480.8594,27.7813 C481.625,27.7813 482.3125,27.6563 482.7344,27.3906 C482.9219,27.2969 482.9219,27.2969 483.375,26.8125 C483.5625,26.625 483.7656,26.5469 483.9844,26.5469 C484.4531,26.5469 484.8438,26.9375 484.8438,27.3906 C484.8438,27.7813 484.5156,28.2344 483.9375,28.6406 C483.1875,29.1875 482.0313,29.4844 480.8125,29.4844 C477.9219,29.4844 475.8125,27.5938 475.8125,25.0156 L475.8125,23.8906 C475.8125,21.1719 477.8125,19.0938 480.4375,19.0938 C481.3125,19.0938 481.9063,19.2344 482.8438,19.6719 Z "/><text fill="#000000" font-family="sans-serif" font-size="12" lengthAdjust="spacingAndGlyphs" textLength="69" x="494.5" y="28.1543">ParaGraczy</text><line style="stroke: #A80036; stroke-width: 1.5;" x1="466.5" x2="565.5" y1="40" y2="40"/><ellipse cx="476.5" cy="51" fill="none" rx="3" ry="3" style="stroke: #038048; stroke-width: 1.0;"/><text fill="#000000" font-family="sans-serif" font-size="11" lengthAdjust="spacingAndGlyphs" textLength="73" x="485.5" y="54.2104">Gracz gracz1</text><ellipse cx="476.5" cy="63.8047" fill="none" rx="3" ry="3" style="stroke: #038048; stroke-width: 1.0;"/><text fill="#000000" font-family="sans-serif" font-size="11" lengthAdjust="spacingAndGlyphs" textLength="73" x="485.5" y="67.0151">Gracz gracz2</text><line style="stroke: #A80036; stroke-width: 1.5;" x1="466.5" x2="565.5" y1="73.6094" y2="73.6094"/><!--MD5=[bcc646f77eeab354102ca8dec6061ccd]
class Reka--><rect fill="#FEFECE" filter="url(#f1l0t8g3fehtif)" height="60.8047" id="Reka" style="stroke: #A80036; stroke-width: 1.5;" width="96" x="292" y="289.5"/><ellipse cx="321.85" cy="305.5" fill="#ADD1B2" rx="11" ry="11" style="stroke: #A80036; stroke-width: 1.0;"/><path d="M324.1938,301.1719 L324.3656,301.25 C324.5844,300.9375 324.7875,300.8438 325.0844,300.8438 C325.3813,300.8438 325.6625,300.9844 325.8188,301.25 C325.9125,301.4063 325.9281,301.5313 325.9281,301.9688 L325.9281,303.3906 C325.9281,303.8125 325.8969,304 325.7875,304.1563 C325.6156,304.375 325.35,304.5156 325.0844,304.5156 C324.8656,304.5156 324.6313,304.4063 324.4906,304.2656 C324.35,304.1406 324.3188,304.0156 324.2563,303.6094 C324.1625,303.2031 323.9906,302.9844 323.5063,302.7031 C323.0375,302.4531 322.4281,302.2969 321.85,302.2969 C320.1156,302.2969 318.8656,303.6094 318.8656,305.3906 L318.8656,306.4844 C318.8656,308.1875 320.1625,309.2813 322.2094,309.2813 C322.975,309.2813 323.6625,309.1563 324.0844,308.8906 C324.2719,308.7969 324.2719,308.7969 324.725,308.3125 C324.9125,308.125 325.1156,308.0469 325.3344,308.0469 C325.8031,308.0469 326.1938,308.4375 326.1938,308.8906 C326.1938,309.2813 325.8656,309.7344 325.2875,310.1406 C324.5375,310.6875 323.3813,310.9844 322.1625,310.9844 C319.2719,310.9844 317.1625,309.0938 317.1625,306.5156 L317.1625,305.3906 C317.1625,302.6719 319.1625,300.5938 321.7875,300.5938 C322.6625,300.5938 323.2563,300.7344 324.1938,301.1719 Z "/><text fill="#000000" font-family="sans-serif" font-size="12" lengthAdjust="spacingAndGlyphs" textLength="31" x="339.15" y="309.6543">Reka</text><line style="stroke: #A80036; stroke-width: 1.5;" x1="293" x2="387" y1="321.5" y2="321.5"/><ellipse cx="303" cy="332.5" fill="none" rx="3" ry="3" style="stroke: #038048; stroke-width: 1.0;"/><text fill="#000000" font-family="sans-serif" font-size="11" lengthAdjust="spacingAndGlyphs" textLength="70" x="312" y="335.7104">Karta[] karty</text><line style="stroke: #A80036; stroke-width: 1.5;" x1="293" x2="387" y1="342.3047" y2="342.3047"/><!--MD5=[c41260bec118f3dcc65916286293a89b]
class Punktacja--><rect fill="#FEFECE" filter="url(#f1l0t8g3fehtif)" height="60.8047" id="Punktacja" style="stroke: #A80036; stroke-width: 1.5;" width="151" x="601.5" y="14.5"/><ellipse cx="642.15" cy="30.5" fill="#ADD1B2" rx="11" ry="11" style="stroke: #A80036; stroke-width: 1.0;"/><path d="M644.4938,26.1719 L644.6656,26.25 C644.8844,25.9375 645.0875,25.8438 645.3844,25.8438 C645.6813,25.8438 645.9625,25.9844 646.1188,26.25 C646.2125,26.4063 646.2281,26.5313 646.2281,26.9688 L646.2281,28.3906 C646.2281,28.8125 646.1969,29 646.0875,29.1563 C645.9156,29.375 645.65,29.5156 645.3844,29.5156 C645.1656,29.5156 644.9313,29.4063 644.7906,29.2656 C644.65,29.1406 644.6188,29.0156 644.5563,28.6094 C644.4625,28.2031 644.2906,27.9844 643.8063,27.7031 C643.3375,27.4531 642.7281,27.2969 642.15,27.2969 C640.4156,27.2969 639.1656,28.6094 639.1656,30.3906 L639.1656,31.4844 C639.1656,33.1875 640.4625,34.2813 642.5094,34.2813 C643.275,34.2813 643.9625,34.1563 644.3844,33.8906 C644.5719,33.7969 644.5719,33.7969 645.025,33.3125 C645.2125,33.125 645.4156,33.0469 645.6344,33.0469 C646.1031,33.0469 646.4938,33.4375 646.4938,33.8906 C646.4938,34.2813 646.1656,34.7344 645.5875,35.1406 C644.8375,35.6875 643.6813,35.9844 642.4625,35.9844 C639.5719,35.9844 637.4625,34.0938 637.4625,31.5156 L637.4625,30.3906 C637.4625,27.6719 639.4625,25.5938 642.0875,25.5938 C642.9625,25.5938 643.5563,25.7344 644.4938,26.1719 Z "/><text fill="#000000" font-family="sans-serif" font-size="12" lengthAdjust="spacingAndGlyphs" textLength="62" x="661.85" y="34.6543">Punktacja</text><line style="stroke: #A80036; stroke-width: 1.5;" x1="602.5" x2="751.5" y1="46.5" y2="46.5"/><line style="stroke: #A80036; stroke-width: 1.5;" x1="602.5" x2="751.5" y1="54.5" y2="54.5"/><text fill="#000000" font-family="sans-serif" font-size="11" lengthAdjust="spacingAndGlyphs" textLength="139" x="607.5" y="68.7104">int liczPunkty(Rozgrywka)</text><!--MD5=[072b20c341a604db8e72287baed3379d]
link Gracz to Gra--><path d="M299.531,483.5 C322.399,483.5 346.633,483.5 368.186,483.5 " fill="none" id="Gracz-Gra" style="stroke: #A80036; stroke-width: 1.0;"/><text fill="#000000" font-family="sans-serif" font-size="13" lengthAdjust="spacingAndGlyphs" textLength="32" x="318" y="476.5669">graja</text><text fill="#000000" font-family="sans-serif" font-size="13" lengthAdjust="spacingAndGlyphs" textLength="8" x="307.4829" y="479.9103">4</text><text fill="#000000" font-family="sans-serif" font-size="13" lengthAdjust="spacingAndGlyphs" textLength="8" x="352.4407" y="479.7419">1</text><!--MD5=[c4b21ed13d7b8571ff730259111df67d]
link Gra to Talia--><path d="M501.544,483.5 C525.182,483.5 552.148,483.5 577.227,483.5 " fill="none" id="Gra-Talia" style="stroke: #A80036; stroke-width: 1.0;"/><text fill="#000000" font-family="sans-serif" font-size="13" lengthAdjust="spacingAndGlyphs" textLength="39" x="520" y="476.5669">uzywa</text><text fill="#000000" font-family="sans-serif" font-size="13" lengthAdjust="spacingAndGlyphs" textLength="8" x="509.7007" y="479.6947">1</text><text fill="#000000" font-family="sans-serif" font-size="13" lengthAdjust="spacingAndGlyphs" textLength="8" x="561.4262" y="479.9103">1</text><!--MD5=[e4960a6271050f473e1e16c5fa7a2191]
link Karta to Talia--><path d="M575.584,357.244 C592.98,381.889 616.054,414.577 634.268,440.38 " fill="none" id="Karta-Talia" style="stroke: #A80036; stroke-width: 1.0;"/><text fill="#000000" font-family="sans-serif" font-size="13" lengthAdjust="spacingAndGlyphs" textLength="61" x="513.7698" y="376.765">nalezy do</text><text fill="#000000" font-family="sans-serif" font-size="13" lengthAdjust="spacingAndGlyphs" textLength="106" x="515.0826" y="429.3569">1 sklada sie z 52</text><!--MD5=[daefa6114df24ad090d7a43b37afb941]
link Gra to Tura--><path d="M465.963,533.171 C492.163,574.355 529.321,632.765 554.248,671.948 " fill="none" id="Gra-Tura" style="stroke: #A80036; stroke-width: 1.0;"/><text fill="#000000" font-family="sans-serif" font-size="13" lengthAdjust="spacingAndGlyphs" textLength="74" x="517" y="607.0669">sklada sie z</text><text fill="#000000" font-family="sans-serif" font-size="13" lengthAdjust="spacingAndGlyphs" textLength="8" x="461.7547" y="553.2715">1</text><text fill="#000000" font-family="sans-serif" font-size="13" lengthAdjust="spacingAndGlyphs" textLength="7" x="542.4266" y="660.9358">*</text><!--MD5=[aec34ed98fce80b60e3749857a8d1ef3]
link Licytacja to Tura--><path d="M423.235,715 C451.073,715 481.368,715 507.9,715 " fill="none" id="Licytacja-Tura" style="stroke: #A80036; stroke-width: 1.0;"/><text fill="#000000" font-family="sans-serif" font-size="13" lengthAdjust="spacingAndGlyphs" textLength="48" x="441.5" y="708.0669">zawiera</text><text fill="#000000" font-family="sans-serif" font-size="13" lengthAdjust="spacingAndGlyphs" textLength="8" x="431.0388" y="711.4342">1</text><text fill="#000000" font-family="sans-serif" font-size="13" lengthAdjust="spacingAndGlyphs" textLength="8" x="491.9491" y="711.279">1</text><!--MD5=[16ef4705546bf316a41b41f15be299e2]
link Tura to Rozgrywka--><path d="M572.794,758.319 C568.369,781.139 562.827,809.718 557.934,834.955 " fill="none" id="Tura-Rozgrywka" style="stroke: #A80036; stroke-width: 1.0;"/><text fill="#000000" font-family="sans-serif" font-size="13" lengthAdjust="spacingAndGlyphs" textLength="48" x="568" y="801.0669">zawiera</text><text fill="#000000" font-family="sans-serif" font-size="13" lengthAdjust="spacingAndGlyphs" textLength="8" x="562.8487" y="778.4628">1</text><text fill="#000000" font-family="sans-serif" font-size="13" lengthAdjust="spacingAndGlyphs" textLength="8" x="550.8514" y="823.9406">1</text><!--MD5=[fa2085de049a7f4f9c786eabc7a86868]
link Odzywka to Licytacja--><path d="M132.235,715 C165.336,715 206.443,715 242.823,715 " fill="none" id="Odzywka-Licytacja" style="stroke: #A80036; stroke-width: 1.0;"/><text fill="#000000" font-family="sans-serif" font-size="13" lengthAdjust="spacingAndGlyphs" textLength="74" x="150.5" y="708.0669">sklada sie z</text><text fill="#000000" font-family="sans-serif" font-size="13" lengthAdjust="spacingAndGlyphs" textLength="7" x="139.9512" y="711.23">*</text><text fill="#000000" font-family="sans-serif" font-size="13" lengthAdjust="spacingAndGlyphs" textLength="8" x="227.024" y="711.4342">1</text><!--MD5=[fcd53d1150e9d9fe455bd02ffe07c55a]
link Rozgrywka to Lewa--><path d="M645.012,897.5 C682.954,897.5 724.559,897.5 755.69,897.5 " fill="none" id="Rozgrywka-Lewa" style="stroke: #A80036; stroke-width: 1.0;"/><text fill="#000000" font-family="sans-serif" font-size="13" lengthAdjust="spacingAndGlyphs" textLength="74" x="663.5" y="890.5669">sklada sie z</text><text fill="#000000" font-family="sans-serif" font-size="13" lengthAdjust="spacingAndGlyphs" textLength="8" x="652.8989" y="894.0043">1</text><text fill="#000000" font-family="sans-serif" font-size="13" lengthAdjust="spacingAndGlyphs" textLength="23" x="725.0268" y="910.5489">0..*</text><!--MD5=[61ca5e9d21c0e7eb75445ca174d95696]
reverse link Odzywka to Kontrakt--><path d="M98.2233,756.182 C148.554,825.387 251.116,966.41 302.389,1036.9103 " fill="none" id="Odzywka&lt;-Kontrakt" style="stroke: #A80036; stroke-width: 1.0;"/><polygon fill="#A80036" points="95.2785,752.133,97.338,761.7641,98.2197,756.1764,103.8074,757.0582,95.2785,752.133" style="stroke: #A80036; stroke-width: 1.0;"/><!--MD5=[7e83e59b74090bac5f08dfaed6ca4111]
link Rozgrywka to Kontrakt--><path d="M473.293,960.113 C443.405,985.441 409.556,1014.125 382.595,1036.9726 " fill="none" id="Rozgrywka-Kontrakt" style="stroke: #A80036; stroke-width: 1.0;"/><text fill="#000000" font-family="sans-serif" font-size="13" lengthAdjust="spacingAndGlyphs" textLength="48" x="435" y="1003.0669">zawiera</text><!--MD5=[ca8358425daaef72375ce2d1a43c7a62]
link ParaGraczy to Gracz--><path d="M465.452,52 C380.911,63.46 220,91.96 220,143 C220,143 220,143 220,321 C220,361.578 217.133,407.802 214.635,440.37 " fill="none" id="ParaGraczy-Gracz" style="stroke: #A80036; stroke-width: 1.0;"/><text fill="#000000" font-family="sans-serif" font-size="13" lengthAdjust="spacingAndGlyphs" textLength="78" x="221" y="218.0669">dobierani sa</text><text fill="#000000" font-family="sans-serif" font-size="13" lengthAdjust="spacingAndGlyphs" textLength="8" x="449.4403" y="49.0319">1</text><text fill="#000000" font-family="sans-serif" font-size="13" lengthAdjust="spacingAndGlyphs" textLength="8" x="206.5768" y="429.3453">2</text><!--MD5=[a74c6491af59969837de924fea2efe44]
link Licytacja to Kontrakt--><path d="M333,758.351 C333,828.297 333,967.15 333,1036.9186 " fill="none" id="Licytacja-Kontrakt" style="stroke: #A80036; stroke-width: 1.0;"/><text fill="#000000" font-family="sans-serif" font-size="13" lengthAdjust="spacingAndGlyphs" textLength="66" x="334" y="902.0669">konczy sie</text><text fill="#000000" font-family="sans-serif" font-size="13" lengthAdjust="spacingAndGlyphs" textLength="8" x="324.3625" y="778.4999">1</text><text fill="#000000" font-family="sans-serif" font-size="13" lengthAdjust="spacingAndGlyphs" textLength="8" x="324.3625" y="1025.9021">1</text><!--MD5=[d8cded765750f0f587f45a27ea093b3a]
link Reka to Gracz--><path d="M316.339,350.622 C296.264,375.755 267.222,412.113 244.714,440.292 " fill="none" id="Reka-Gracz" style="stroke: #A80036; stroke-width: 1.0;"/><text fill="#000000" font-family="sans-serif" font-size="13" lengthAdjust="spacingAndGlyphs" textLength="8" x="302.6339" y="370.5854">1</text><text fill="#000000" font-family="sans-serif" font-size="13" lengthAdjust="spacingAndGlyphs" textLength="8" x="241.264" y="429.5727">1</text><!--MD5=[d295923623d4d9882cd7fa248d31a6b5]
link Reka to Karta--><path d="M388.178,320 C418.33,320 457.428,320 489.639,320 " fill="none" id="Reka-Karta" style="stroke: #A80036; stroke-width: 1.0;"/><text fill="#000000" font-family="sans-serif" font-size="13" lengthAdjust="spacingAndGlyphs" textLength="48" x="415" y="313.0669">zawiera</text><text fill="#000000" font-family="sans-serif" font-size="13" lengthAdjust="spacingAndGlyphs" textLength="8" x="395.8416" y="315.9894">1</text><text fill="#000000" font-family="sans-serif" font-size="13" lengthAdjust="spacingAndGlyphs" textLength="32" x="449.7643" y="332.8673">0..13</text><!--MD5=[6c168e1abfcd85560fdfc85de840ec45]
link ParaGraczy to Lewa--><path d="M566.677,74.34 C572.438,77.11 578.291,79.73 584,82 C678.278,119.51 804,41.53 804,143 C804,143 804,143 804,716 C804,769.116 804,831.024 804,866.796 " fill="none" id="ParaGraczy-Lewa" style="stroke: #A80036; stroke-width: 1.0;"/><text fill="#000000" font-family="sans-serif" font-size="13" lengthAdjust="spacingAndGlyphs" textLength="53" x="805" y="400.0669">wygrywa</text><!--MD5=[44f9ed5d3f113c96c3b7dfc8dc849d91]
link Gracz to Odzywka--><path d="M184.955,526.594 C158.133,569.944 116.769,636.796 91.3755,677.837 " fill="none" id="Gracz-Odzywka" style="stroke: #A80036; stroke-width: 1.0;"/><text fill="#000000" font-family="sans-serif" font-size="13" lengthAdjust="spacingAndGlyphs" textLength="52" x="144" y="607.0669">zagrywa</text><!--MD5=[27812ead7804fe240cfb3e5ae61aec87]
@startuml

Gracz "4" - - -right- - - "1" Gra : graja

Gra "1" - "1" Talia : uzywa

Talia "1 sklada sie z 52" -up- "nalezy do" Karta 

Gra "1" - - "*" Tura : sklada sie z

Tura "1" -left- "1" Licytacja : zawiera
Tura "1" - - "1" Rozgrywka : zawiera

Licytacja "1" -left- "*" Odzywka: sklada sie z 
Rozgrywka "1" -right- "0..*" Lewa : sklada sie z

Odzywka <- Kontrakt
Rozgrywka - Kontrakt : zawiera

ParaGraczy "1" - -down- - - "2" Gracz : dobierani sa

Licytacja "1" - - - "1" Kontrakt : konczy sie 

Gracz "1" -up- "1" Reka
Reka "1" -right- "0..13" Karta : zawiera

ParaGraczy - - Lewa : wygrywa
Gracz - - - Odzywka : zagrywa


class Karta {
       +int kolor // enum
       +int starszenstwo
}

class Talia {
       +Karta[] karty
       +void tasuj()
       +Reka wybierz13losowych()
}

class ParaGraczy {
       +Gracz gracz1
       +Gracz gracz2
}

class Reka {
       +Karta[] karty
}


class Gracz {
       +Reka reka 
       +Kontrakt deklarujKontrakt()
       +Odzywka licytuj()
}

class Tura {
       +Licytacja licytacja
       +Rozgrywka rozgrywka 
       +void rozegrajTure()
}

class Licytacja {
       +Odzywka[] odzywki
       +Kontrakt wynikowyKontrakt
       +void przeprowadzLicytacje()
}

class Rozgrywka {
       +Gracz rozgrywajacy
       +Kontrakt obowiazujacyKontrakt
       +Lewa[] lewy 
       +void rozdajKarty()
       +void rozgrywajLewy()
       +void rozliczKontrakt()
}

class Lewa {
       +Karta[] karty 
}

class Punktacja {
       int liczPunkty(Rozgrywka)
}

class Odzywka {
       +Gracz deklarujacy
       +int typ // enum 
}

class Kontrakt {
       +Gracz deklarujacy
       +int kolor // enum
       +int wartosc
}

class Gra {
       +Gracz[] gracze
       +Tura[] tury
       +Talia talia 
       +void rozegrajTure()
}
@enduml

PlantUML version 1.2020.02(Sun Mar 01 10:22:07 UTC 2020)
(GPL source distribution)
Java Runtime: Java(TM) SE Runtime Environment
JVM: Java HotSpot(TM) 64-Bit Server VM
Java Version: 1.7.0_25-b15
Operating System: Linux
Default Encoding: UTF-8
Language: en
Country: US
--></g></svg>